# xmcd
#
# Track frame offsets:
#	150
#	17175
#	35550
#	51375
#	62475
#	82275
#	99750
#	120600
#	134775
#	150300
#	164625
#	181650
#	200025
#	215850
#	226950
#	246750
#	264225
#	285075
#	299250
#	314775
#
# Disc length: 4391 seconds
#
# Revision: 1
# Processed by: cddbd v1.5.1PL0 Copyright (c) Steve Scherf et al.
# Submitted via: audiograbber 1.82.02
#
DISCID=2a112514
DTITLE=Various Artist - Country Hits Todays 9906C
DYEAR=1900
DGENRE=Karaoke
TTITLE0=Tim McGraw - Please remember me
TTITLE1=Shania Twain - Man! I feel like a woman
TTITLE2=Dixie Chicks - Tonight the heartache's on me
TTITLE3=John Michael Montgomery - Hello L.O.V.E
TTITLE4=Deana Carter - Angels working overtime
TTITLE5=Reba McEntire - One honest heart
TTITLE6=Steve Wariner - Two teardrops
TTITLE7=Sara Evans - Fool, I'm a woman
TTITLE8=Joe Diffie - A night to remember
TTITLE9=Chely Wright - Single white female
TTITLE10=Tim McGraw W - Vocals - Please remember me W - Vocals
TTITLE11=Shania Twain W - Vocals - Man! I feel like a woman W - Vocals
TTITLE12=Dixie Chicks W - Vocals - Tonight the heartache's on me W - Vocals
TTITLE13=John Michael Montgomery W - Vocals - Hello L.O.V.E W - Vocals
TTITLE14=Deana Carter W - Vocals - Angels working overtime W - Vocals
TTITLE15=Reba McEntire W - Vocals - One honest heart W - Vocals
TTITLE16=Steve Wariner W - Vocals - Two teardrops W - Vocals
TTITLE17=Sara Evans W - Vocals - Fool, I'm a woman W - Vocals
TTITLE18=Joe Diffie W - Vocals - A night to remember W - Vocals
TTITLE19=Chely Wright W - Vocals - Single white female W - Vocals
EXTD=
EXTT0=
EXTT1=
EXTT2=
EXTT3=
EXTT4=
EXTT5=
EXTT6=
EXTT7=
EXTT8=
EXTT9=
EXTT10=
EXTT11=
EXTT12=
EXTT13=
EXTT14=
EXTT15=
EXTT16=
EXTT17=
EXTT18=
EXTT19=
PLAYORDER=
